<svg width="50" height="41" viewBox="0 0 50 41" fill="none" xmlns="http://www.w3.org/2000/svg">
<path d="M43.717 27.3604C42.8813 27.4396 42.0907 27.5148 41.4462 27.9786C40.4896 28.6665 39.8516 29.5209 39.2357 30.3484C38.128 31.8324 36.9835 33.367 34.1269 33.511C34.0022 33.5176 33.8791 33.5209 33.756 33.5209C31.894 33.5209 30.3242 32.8126 28.8027 32.1264C27.9632 31.7484 27.0945 31.3571 26.194 31.0956C24.1291 30.4962 22.9786 31.1341 21.3879 32.0198C20.9813 32.2467 20.556 32.4819 20.0934 32.711C17.5176 33.9736 14.8857 33.0863 13.2247 30.3885C12.9456 29.933 12.6885 29.4132 12.4165 28.8615C11.6621 27.3346 10.8082 25.6033 9.32143 25.2099C8.60494 25.017 7.82802 25.1313 7.00604 25.2538C5.63791 25.4533 4.09011 25.6824 2.82253 24.289C2.45989 23.8907 2.17637 23.4225 1.92802 22.9313C3.44011 32.0637 13.178 39.1335 24.9346 39.1335C35.2527 39.1335 44.0181 33.6841 47.0291 26.1747C46.5467 26.5868 46.0258 26.8824 45.4538 27.0665C44.8802 27.2511 44.2879 27.306 43.717 27.3604Z" fill="#FAE58F"/>
<path d="M24.9346 12.6907C21.4209 12.6907 18.4527 14.1313 18.4527 15.8363C18.4527 16.3725 18.7484 16.883 19.261 17.3308C20.0033 14.7676 29.8643 14.7676 30.6049 17.3308C31.1176 16.883 31.4137 16.3725 31.4137 15.8363C31.4137 14.1313 28.4467 12.6907 24.9346 12.6907Z" fill="#B07072"/>
<path d="M24.9346 1.77143C13.3753 1.77143 3.76593 8.60439 2.00824 17.5121C1.73516 19.3143 2.05879 22.0736 3.50824 23.6632C4.44505 24.6923 5.57033 24.5269 6.87088 24.3352C7.75055 24.206 8.65659 24.072 9.56099 24.3126C11.4549 24.8132 12.4088 26.7451 13.2495 28.4494C13.5115 28.9819 13.7588 29.4824 14.0165 29.9016C15.4247 32.189 17.5429 32.9302 19.6835 31.8758C20.1324 31.6566 20.5434 31.428 20.9374 31.2082C22.5885 30.2885 24.0192 29.4967 26.4538 30.2038C27.4165 30.4841 28.3159 30.8879 29.1846 31.2808C30.7753 31.9984 32.2901 32.6764 34.0802 32.5852C36.5027 32.4632 37.3802 31.2852 38.4912 29.7934C39.1495 28.9099 39.8308 27.9973 40.9044 27.2258C41.7533 26.6148 42.706 26.5242 43.6302 26.4368C44.1764 26.3852 44.6934 26.3368 45.1703 26.1841C46.0885 25.8879 46.8709 25.2099 47.5588 24.1115C47.6027 24.0407 47.6648 23.9923 47.733 23.956C48.0011 22.8198 48.1484 21.65 48.1484 20.4522C48.1478 10.1516 37.7335 1.77143 24.9346 1.77143ZM29.4808 19.0681C28.5489 19.5374 27.1659 19.8126 25.7187 19.8874C25.706 19.8874 25.6929 19.8885 25.6786 19.8896C25.4324 19.9011 25.1835 19.9088 24.9346 19.9088C24.6857 19.9088 24.4357 19.9011 24.1879 19.8896C24.1753 19.8885 24.1621 19.8874 24.1484 19.8874C22.7022 19.8126 21.3209 19.5385 20.3885 19.0692C18.6385 18.3313 17.5247 17.1703 17.5247 15.8363C17.5247 13.5522 20.7791 11.7626 24.9346 11.7626C29.0874 11.7626 32.3412 13.5516 32.3412 15.8363C32.3412 17.1692 31.228 18.3302 29.4808 19.0681Z" fill="#B07072"/>
<path d="M25.0357 40.8516C11.2874 40.8516 0.102197 31.7011 0.102197 20.4527C0.102197 9.20495 11.2868 0.0554938 25.0357 0.0554938C38.7824 0.0554938 49.9659 9.20495 49.9659 20.4527C49.9659 31.7011 38.7824 40.8516 25.0357 40.8516ZM25.0357 2.56154C12.6692 2.56154 2.60769 10.5879 2.60769 20.4533C2.60769 30.3187 12.6692 38.3462 25.0357 38.3462C37.4011 38.3462 47.4604 30.3187 47.4604 20.4533C47.4604 10.5879 37.4011 2.56154 25.0357 2.56154Z" fill="#434B56"/>
<path d="M25.0357 20.6984C20.361 20.6984 16.8368 18.6082 16.8368 15.8368C16.8368 13.0648 20.361 10.9747 25.0357 10.9747C29.7082 10.9747 33.2319 13.0648 33.2319 15.8368C33.2319 18.6088 29.7082 20.6984 25.0357 20.6984ZM25.0357 13.4808C21.5599 13.4808 19.3423 14.8764 19.3423 15.8374C19.3423 16.7978 21.5599 18.1918 25.0357 18.1918C28.5088 18.1918 30.7258 16.7978 30.7258 15.8374C30.7264 14.8758 28.5093 13.4808 25.0357 13.4808Z" fill="#434B56"/>
<path d="M19.933 19.1104C19.4852 19.1104 19.078 18.9082 18.8148 18.5577C18.6231 18.3011 18.5258 17.9934 18.5258 17.6423C18.5258 15.3852 22.033 14.5835 25.0363 14.5835C25.0374 14.5835 25.0396 14.5835 25.0418 14.5835H25.0473C28.0473 14.5857 31.5445 15.3874 31.5445 17.6423C31.5445 18.4786 30.939 19.1099 30.1374 19.1099C29.5956 19.1099 29.1538 18.8352 28.4868 18.4214C27.6335 17.8907 26.344 17.0901 25.0363 17.0901C23.7275 17.0901 22.4368 17.8918 21.5819 18.4214C20.9148 18.8357 20.4747 19.1093 19.933 19.1104Z" fill="#434B56"/>
<path d="M33.8489 34.3104C31.8264 34.3104 30.1775 33.5665 28.5797 32.8462C27.7264 32.4621 26.9225 32.0994 26.0769 31.8527C24.3253 31.3445 23.4027 31.8582 21.8725 32.7104C21.456 32.9412 21.0264 33.1802 20.5418 33.4176C17.6154 34.8566 14.5187 33.8291 12.6549 30.8022C12.3549 30.3137 12.0907 29.7791 11.811 29.211C11.0978 27.7676 10.3621 26.2747 9.22143 25.9731C8.65714 25.8242 7.96044 25.9253 7.22198 26.0341C5.81703 26.2412 3.89286 26.5264 2.34011 24.8198C0.102197 22.3648 0.00604276 18.2247 0.645054 16.2C0.853296 15.5396 1.55824 15.1736 2.21813 15.383C2.87747 15.5912 3.24341 16.2951 3.03516 16.9549C2.55439 18.4769 2.76154 21.5626 4.19286 23.1319C4.79121 23.789 5.4 23.7692 6.85604 23.5538C7.76868 23.4192 8.80275 23.2659 9.86538 23.5505C12.1044 24.1423 13.1868 26.3368 14.0577 28.1011C14.311 28.6148 14.5505 29.1005 14.7896 29.4874C15.3516 30.4016 16.9302 32.3978 19.4379 31.1681C19.872 30.9538 20.2709 30.7308 20.6527 30.5192C22.3093 29.5967 24.0192 28.6429 26.7758 29.4456C27.7918 29.7401 28.7148 30.1577 29.6082 30.5599C31.1099 31.2374 32.5242 31.8687 34.1412 31.7956C36.1918 31.6929 36.8945 30.75 37.9593 29.3214C38.6203 28.433 39.3714 27.4264 40.5451 26.5835C41.5665 25.8489 42.6769 25.7434 43.656 25.6511C44.1588 25.6038 44.633 25.5588 45.0291 25.4319C45.7632 25.1956 46.4039 24.6269 46.9901 23.6912C47.3566 23.1044 48.1291 22.9269 48.7165 23.2945C49.3038 23.6621 49.4808 24.4357 49.1143 25.0214C48.2022 26.4786 47.1165 27.3923 45.7967 27.8176C45.1407 28.0286 44.4775 28.0907 43.8923 28.1467C43.1335 28.2181 42.4786 28.2808 42.0077 28.6198C41.1489 29.2363 40.5753 30.0055 39.9687 30.8198C38.8093 32.3747 37.4951 34.1379 34.2665 34.3C34.1258 34.3071 33.9863 34.3104 33.8489 34.3104Z" fill="#434B56"/>
<path d="M7.65385 14.4885C7.31868 14.4885 6.98242 14.3544 6.73681 14.089C6.26538 13.5819 6.29341 12.789 6.80055 12.3181L10.9538 8.45385C11.4621 7.98242 12.2544 8.01099 12.7247 8.51758C13.1962 9.02472 13.1687 9.81813 12.661 10.2885L8.50769 14.1522C8.26593 14.3775 7.95934 14.4885 7.65385 14.4885Z" fill="#434B56"/>
<path d="M14.5929 25.8632C14.1879 25.8632 13.7912 25.6676 13.5495 25.3049L10.7769 21.1489C10.3929 20.5725 10.5478 19.7945 11.1242 19.4104C11.6995 19.0275 12.4786 19.1813 12.8615 19.7577L15.6335 23.9143C16.0176 24.4896 15.8621 25.2676 15.2874 25.6511C15.0736 25.794 14.8319 25.8632 14.5929 25.8632Z" fill="#434B56"/>
<path d="M12.6912 16.6692C12.172 16.6692 11.6874 16.344 11.5071 15.8275C11.2791 15.1736 11.6247 14.4593 12.2786 14.2313L15.1758 13.2236C15.828 12.9956 16.5434 13.3423 16.7709 13.9962C16.9989 14.6489 16.6533 15.3637 15.9995 15.5912L13.1022 16.5989C12.9665 16.6467 12.8269 16.6692 12.6912 16.6692Z" fill="#434B56"/>
<path d="M29.0654 27.6286C28.7038 27.6286 28.3451 27.4731 28.0984 27.1731L25.706 24.2742C25.2654 23.7407 25.3412 22.9511 25.8753 22.5104C26.4088 22.0703 27.1984 22.1451 27.639 22.6791L30.0313 25.5786C30.472 26.1115 30.3962 26.9011 29.8621 27.3418C29.6286 27.5352 29.3462 27.6286 29.0654 27.6286Z" fill="#434B56"/>
<path d="M37.3797 22.3368C36.9412 22.3368 36.5165 22.1071 36.2863 21.6989C35.9467 21.0956 36.1604 20.3319 36.7632 19.9918L41.0456 17.5791C41.6489 17.239 42.4137 17.4533 42.7522 18.056C43.0923 18.6582 42.8786 19.4236 42.2753 19.7621L37.9934 22.1747C37.7995 22.2852 37.5879 22.3368 37.3797 22.3368Z" fill="#434B56"/>
<path d="M39.5187 14.4885C38.95 14.4885 38.4352 14.1 38.2989 13.5225L36.9143 7.64231C36.7555 6.96868 37.1736 6.29451 37.8462 6.13571C38.522 5.97912 39.1956 6.39506 39.3538 7.06813L40.7385 12.9484C40.8973 13.6214 40.4791 14.2962 39.8066 14.4549C39.7093 14.4775 39.6137 14.4885 39.5187 14.4885Z" fill="#434B56"/>
<path d="M30.3626 9.11154C29.9676 9.11154 29.5775 8.92582 29.3346 8.57692C28.9379 8.01044 29.0753 7.22802 29.6434 6.83187L32.883 4.56374C33.4506 4.16648 34.2308 4.30494 34.6286 4.87253C35.0253 5.43901 34.8874 6.22033 34.3209 6.61758L31.0802 8.88461C30.8604 9.03791 30.6104 9.11154 30.3626 9.11154Z" fill="#434B56"/>
<path d="M22.5143 9.61538C22.2511 9.61538 21.9846 9.53242 21.7577 9.36099L18.1038 6.58846C17.5522 6.17088 17.4456 5.38462 17.8632 4.83407C18.2819 4.28132 19.067 4.17363 19.6187 4.59231L23.2725 7.36429C23.8242 7.78297 23.9324 8.56868 23.5132 9.12033C23.267 9.44505 22.8934 9.61538 22.5143 9.61538Z" fill="#434B56"/>
<path d="M18.2324 27.6286C17.8978 27.6286 17.5632 27.4951 17.317 27.2319C16.8445 26.7253 16.8709 25.9324 17.3764 25.4593L19.267 23.694C19.7714 23.2225 20.5654 23.2478 21.0379 23.7527C21.5104 24.2593 21.4835 25.0522 20.9786 25.5253L19.0879 27.2912C18.8462 27.5165 18.539 27.6286 18.2324 27.6286Z" fill="#434B56"/>
</svg>
